<svg xmlns="http://www.w3.org/2000/svg" width="560" height="377" viewBox="0 0 560 377" role="img" aria-label="Jáchym Šolta — neofetch info card">
<style>.ln{opacity:0;animation:in .45s ease-out both}@keyframes in{from{opacity:0;transform:translateX(-10px)}to{opacity:1;transform:none}}</style>
<rect x="0.5" y="0.5" width="559" height="376" rx="12" fill="#0d1117" stroke="#30363d"/>
<path d="M0.5 12 a12 12 0 0 1 12 -11.5 h535 a12 12 0 0 1 12 11.5 v22 h-559 z" fill="#161b22"/>
<line x1="0.5" y1="34.5" x2="559.5" y2="34.5" stroke="#30363d"/>
<circle cx="20" cy="17.0" r="5.5" fill="#ff5f57"/>
<circle cx="40" cy="17.0" r="5.5" fill="#febc2e"/>
<circle cx="60" cy="17.0" r="5.5" fill="#28c840"/>
<text x="280.0" y="21.0" text-anchor="middle" fill="#8b949e" font-family="ui-monospace,SFMono-Regular,Menlo,Consolas,monospace" font-size="12">jachym@arch: ~/neofetch</text>
<g font-family="ui-monospace,SFMono-Regular,Menlo,Consolas,monospace" font-size="14">
<g class="ln" style="animation-delay:0.35s"><text x="22" y="70" fill="#76e3ea" font-weight="bold"><tspan fill="#3fb950">jachym</tspan><tspan fill="#8b949e">@</tspan><tspan fill="#58a6ff">arch</tspan></text></g>
<g class="ln" style="animation-delay:0.48s"><line x1="22" y1="89" x2="118" y2="89" stroke="#8b949e" stroke-dasharray="2 2"/></g>
<g class="ln" style="animation-delay:0.61s"><text x="22" y="116" fill="#3fb950" font-weight="bold">OS:</text><text x="118" y="116" fill="#c9d1d9">Arch Linux x86_64</text></g>
<g class="ln" style="animation-delay:0.74s"><text x="22" y="139" fill="#3fb950" font-weight="bold">WM:</text><text x="118" y="139" fill="#c9d1d9">Hyprland (Wayland)</text></g>
<g class="ln" style="animation-delay:0.87s"><text x="22" y="162" fill="#3fb950" font-weight="bold">Role:</text><text x="118" y="162" fill="#c9d1d9">Full-Stack Developer @ djt-group</text></g>
<g class="ln" style="animation-delay:1.00s"><text x="22" y="185" fill="#3fb950" font-weight="bold">Location:</text><text x="118" y="185" fill="#c9d1d9">Czech Republic</text></g>
<g class="ln" style="animation-delay:1.13s"><text x="22" y="208" fill="#3fb950" font-weight="bold">Now:</text><text x="118" y="208" fill="#c9d1d9">Scalable, high-performance web apps</text></g>
<g class="ln" style="animation-delay:1.26s"><text x="22" y="231" fill="#3fb950" font-weight="bold">Stack:</text><text x="118" y="231" fill="#c9d1d9">TypeScript · React · Next.js · Node.js</text></g>
<g class="ln" style="animation-delay:1.39s"><text x="22" y="254" fill="#3fb950" font-weight="bold">Also:</text><text x="118" y="254" fill="#c9d1d9">Python · Prisma · PostgreSQL · Supabase</text></g>
<g class="ln" style="animation-delay:1.52s"><text x="22" y="277" fill="#3fb950" font-weight="bold">Rice:</text><text x="118" y="277" fill="#c9d1d9">Hyprland dotfiles → OckoTajny/dotfiles</text></g>
<g class="ln" style="animation-delay:1.65s"><text x="22" y="300" fill="#3fb950" font-weight="bold">Web:</text><text x="118" y="300" fill="#c9d1d9">jachym.djt-group.com</text></g>
<g class="ln" style="animation-delay:1.78s"><text x="22" y="323" fill="#3fb950" font-weight="bold">Mail:</text><text x="118" y="323" fill="#c9d1d9">jachym@djt-group.com</text></g>
<g class="ln" style="animation-delay:1.91s"><rect x="22" y="336" width="22" height="12" fill="#484f58"/><rect x="44" y="336" width="22" height="12" fill="#ff7b72"/><rect x="66" y="336" width="22" height="12" fill="#3fb950"/><rect x="88" y="336" width="22" height="12" fill="#d29922"/><rect x="110" y="336" width="22" height="12" fill="#58a6ff"/><rect x="132" y="336" width="22" height="12" fill="#bc8cff"/><rect x="154" y="336" width="22" height="12" fill="#76e3ea"/><rect x="176" y="336" width="22" height="12" fill="#c9d1d9"/></g>
</g></svg>